<svg xmlns="http://www.w3.org/2000/svg" xmlns:xlink="http://www.w3.org/1999/xlink" version="1.1" xml:space="preserve" viewBox="0 0 1080 1080">
<desc>Created with Fabric.js 5.2.4</desc>
<defs>
</defs>
<rect x="0" y="0" width="100%" height="100%" fill="transparent"/>
<g transform="matrix(1 0 0 1 540 540)" id="c411940c-f0fc-481f-89be-55a66b5c4c3b">
</g>
<g transform="matrix(1 0 0 1 540 540)" id="edbf8964-64d2-4239-8abb-bc1a0b58bd43">
<rect style="stroke: none; stroke-width: 1; stroke-dasharray: none; stroke-linecap: butt; stroke-dashoffset: 0; stroke-linejoin: miter; stroke-miterlimit: 4; fill: rgb(255,255,255); fill-rule: nonzero; opacity: 1; visibility: hidden;" vector-effect="non-scaling-stroke" x="-540" y="-540" rx="0" ry="0" width="1080" height="1080"/>
</g>
<g transform="matrix(0.76 0 0 0.76 540 540)">
<g style="" vector-effect="non-scaling-stroke">
		<g transform="matrix(1 0 0 1 0 0)">
<rect style="stroke: none; stroke-width: 1; stroke-dasharray: none; stroke-linecap: butt; stroke-dashoffset: 0; stroke-linejoin: miter; stroke-miterlimit: 4; fill: rgb(255,255,255); fill-rule: nonzero; opacity: 1; visibility: hidden;" vector-effect="non-scaling-stroke" x="-540" y="-540" rx="0" ry="0" width="1080" height="1080"/>
</g>
		<g transform="matrix(2.25 0 0 2.25 0 -16.91)">
<path style="stroke: rgb(0,0,0); stroke-width: 0; stroke-dasharray: none; stroke-linecap: butt; stroke-dashoffset: 0; stroke-linejoin: miter; stroke-miterlimit: 4; fill: rgb(37,70,115); fill-rule: nonzero; opacity: 1;" vector-effect="non-scaling-stroke" transform=" translate(6.94, -52.07)" d="M 126.1 -122.6 C 154.6 -97.6 162.8 -48.8 172.3 9.5 C 181.9 67.9 192.8 135.8 164.3 185.6 C 135.8 235.4 67.9 267.2 -1.4 268.6 C -70.7 270 -141.4 241.1 -172.9 191.3 C -204.4 141.4 -196.7 70.7 -192.5 4.2 C -188.2 -62.2 -187.5 -124.5 -156 -149.5 C -124.5 -174.5 -62.2 -162.2 -6.7 -155.5 C 48.8 -148.8 97.6 -147.6 126.1 -122.6" stroke-linecap="round"/>
</g>
</g>
</g>
</svg>