<?xml version="1.0" encoding="UTF-8" standalone="no" ?>
<!DOCTYPE svg PUBLIC "-//W3C//DTD SVG 1.1//EN" "http://www.w3.org/Graphics/SVG/1.1/DTD/svg11.dtd">
<svg xmlns="http://www.w3.org/2000/svg" xmlns:xlink="http://www.w3.org/1999/xlink" version="1.1" width="1080" height="1080" viewBox="0 0 1080 1080" xml:space="preserve">
<desc>Created with Fabric.js 5.2.4</desc>
<defs>
</defs>
<rect x="0" y="0" width="100%" height="100%" fill="transparent"></rect>
<g transform="matrix(1 0 0 1 540 540)" id="c411940c-f0fc-481f-89be-55a66b5c4c3b"  >
</g>
<g transform="matrix(1 0 0 1 540 540)" id="edbf8964-64d2-4239-8abb-bc1a0b58bd43"  >
<rect style="stroke: none; stroke-width: 1; stroke-dasharray: none; stroke-linecap: butt; stroke-dashoffset: 0; stroke-linejoin: miter; stroke-miterlimit: 4; fill: rgb(255,255,255); fill-rule: nonzero; opacity: 1; visibility: hidden;" vector-effect="non-scaling-stroke"  x="-540" y="-540" rx="0" ry="0" width="1080" height="1080" />
</g>
<g transform="matrix(1.79 0 0 1.79 540 540)"  >
<path style="stroke: rgb(0,0,0); stroke-width: 0; stroke-dasharray: none; stroke-linecap: butt; stroke-dashoffset: 0; stroke-linejoin: miter; stroke-miterlimit: 4; fill: rgb(10,48,105); fill-rule: nonzero; opacity: 1;" vector-effect="non-scaling-stroke"  transform=" translate(14.89, -8.43)" d="M 124 -124.2 C 149 -99 149.5 -49.5 148.6 -0.9 C 147.6 47.6 145.2 95.2 120.2 128.7 C 95.2 162.2 47.6 181.6 -9.1 190.7 C -65.8 199.8 -131.5 198.5 -156.5 165 C -181.5 131.5 -165.8 65.8 -168.2 -2.5 C -170.7 -70.7 -191.4 -141.4 -166.4 -166.6 C -141.4 -191.8 -70.7 -171.4 -10.6 -160.8 C 49.5 -150.2 99 -149.3 124 -124.2" stroke-linecap="round" />
</g>
</svg>