<svg id="visual" viewBox="0 0 500 30" width="500" height="30" xmlns="http://www.w3.org/2000/svg" xmlns:xlink="http://www.w3.org/1999/xlink" version="1.1"><rect x="0" y="0" width="500" height="30" fill="#4488c9"></rect><path d="M0 28L13.8 24.2C27.7 20.3 55.3 12.7 83.2 9.3C111 6 139 7 166.8 9.8C194.7 12.7 222.3 17.3 250 17.7C277.7 18 305.3 14 333.2 14C361 14 389 18 416.8 18C444.7 18 472.3 14 486.2 12L500 10L500 31L486.2 31C472.3 31 444.7 31 416.8 31C389 31 361 31 333.2 31C305.3 31 277.7 31 250 31C222.3 31 194.7 31 166.8 31C139 31 111 31 83.2 31C55.3 31 27.7 31 13.8 31L0 31Z" fill="#35669d" stroke-linecap="round" stroke-linejoin="miter"></path></svg>