<svg id="visual" viewBox="0 0 550 50" width="550" height="50" xmlns="http://www.w3.org/2000/svg" xmlns:xlink="http://www.w3.org/1999/xlink" version="1.1"><rect x="0" y="0" width="550" height="50" fill="#4488c9"></rect><path d="M0 24L13.2 22C26.3 20 52.7 16 78.8 14.2C105 12.3 131 12.7 157.2 17.5C183.3 22.3 209.7 31.7 235.8 33C262 34.3 288 27.7 314.2 25.3C340.3 23 366.7 25 392.8 26C419 27 445 27 471.2 30C497.3 33 523.7 39 536.8 42L550 45L550 51L536.8 51C523.7 51 497.3 51 471.2 51C445 51 419 51 392.8 51C366.7 51 340.3 51 314.2 51C288 51 262 51 235.8 51C209.7 51 183.3 51 157.2 51C131 51 105 51 78.8 51C52.7 51 26.3 51 13.2 51L0 51Z" fill="#4facf7" stroke-linecap="round" stroke-linejoin="miter"></path></svg>