<svg id="visual" viewBox="0 0 600 50" width="600" height="50" xmlns="http://www.w3.org/2000/svg" xmlns:xlink="http://www.w3.org/1999/xlink" version="1.1"><rect x="0" y="0" width="600" height="50" fill="#35669d"></rect><path d="M0 2L20 4.7C40 7.3 80 12.7 120 14.8C160 17 200 16 240 20.2C280 24.3 320 33.7 360 34.5C400 35.3 440 27.7 480 20.7C520 13.7 560 7.3 580 4.2L600 1L600 51L580 51C560 51 520 51 480 51C440 51 400 51 360 51C320 51 280 51 240 51C200 51 160 51 120 51C80 51 40 51 20 51L0 51Z" fill="#4488c9" stroke-linecap="round" stroke-linejoin="miter"></path></svg>