<svg id="visual" viewBox="0 0 1600 150" width="1600" height="150" xmlns="http://www.w3.org/2000/svg" xmlns:xlink="http://www.w3.org/1999/xlink" version="1.1"><rect x="0" y="0" width="1600" height="150" fill="#4488c9"></rect><path d="M0 65L66.7 77.8C133.3 90.7 266.7 116.3 400 107.2C533.3 98 666.7 54 800 30.5C933.3 7 1066.7 4 1200 16.8C1333.3 29.7 1466.7 58.3 1533.3 72.7L1600 87L1600 0L1533.3 0C1466.7 0 1333.3 0 1200 0C1066.7 0 933.3 0 800 0C666.7 0 533.3 0 400 0C266.7 0 133.3 0 66.7 0L0 0Z" fill="#4facf7" stroke-linecap="round" stroke-linejoin="miter"></path></svg>