<svg id="visual" viewBox="0 0 960 540" width="960" height="540" xmlns="http://www.w3.org/2000/svg" xmlns:xlink="http://www.w3.org/1999/xlink" version="1.1"><path d="M0 174L40 159.5C80 145 160 116 240 123.2C320 130.3 400 173.7 480 168.3C560 163 640 109 720 86.5C800 64 880 73 920 77.5L960 82L960 0L920 0C880 0 800 0 720 0C640 0 560 0 480 0C400 0 320 0 240 0C160 0 80 0 40 0L0 0Z" fill="#9eb8de"></path><path d="M0 336L40 322.5C80 309 160 282 240 278.3C320 274.7 400 294.3 480 303.3C560 312.3 640 310.7 720 320.7C800 330.7 880 352.3 920 363.2L960 374L960 80L920 75.5C880 71 800 62 720 84.5C640 107 560 161 480 166.3C400 171.7 320 128.3 240 121.2C160 114 80 143 40 157.5L0 172Z" fill="#90b5e5"></path><path d="M0 438L40 429C80 420 160 402 240 398.5C320 395 400 406 480 404.3C560 402.7 640 388.3 720 386.5C800 384.7 880 395.3 920 400.7L960 406L960 372L920 361.2C880 350.3 800 328.7 720 318.7C640 308.7 560 310.3 480 301.3C400 292.3 320 272.7 240 276.3C160 280 80 307 40 320.5L0 334Z" fill="#7fb2eb"></path><path d="M0 509L40 497.2C80 485.3 160 461.7 240 458C320 454.3 400 470.7 480 478C560 485.3 640 483.7 720 486.3C800 489 880 496 920 499.5L960 503L960 404L920 398.7C880 393.3 800 382.7 720 384.5C640 386.3 560 400.7 480 402.3C400 404 320 393 240 396.5C160 400 80 418 40 427L0 436Z" fill="#6aaff1"></path><path d="M0 541L40 541C80 541 160 541 240 541C320 541 400 541 480 541C560 541 640 541 720 541C800 541 880 541 920 541L960 541L960 501L920 497.5C880 494 800 487 720 484.3C640 481.7 560 483.3 480 476C400 468.7 320 452.3 240 456C160 459.7 80 483.3 40 495.2L0 507Z" fill="#4facf7"></path></svg>